# xmcd
#
# Track frame offsets: 
#        150
#        19643
#        36259
#        56474
#        73976
#        90657
#        108148
#        128741
#        144731
#        163369
#        180008
#        197588
#        218332
#        239004
#        255842
#        273588
#        295188
#        314726
#
# Disc length: 4347 seconds
#
# Revision: 2
# Processed by: cddbd v1.5.2PL0 Copyright (c) Steve Scherf et al.
# Submitted via: ExactAudioCopyFreeDBPlugin 1.0
#
DISCID=0410f912
DTITLE=Various Artist - Pop ϟ Rock Station By Zégut Vol.1
DYEAR=2012
DGENRE=Blues
TTITLE0=Lenny Kravitz - American Woman
TTITLE1=The Lemondheads - Mrs. Robinson
TTITLE2=Inspiral Carpets - Tainted Love
TTITLE3=My TV Is Dead - Strange Fruit
TTITLE4=Lacuna Coil - Losing My Religion
TTITLE5=HIM - Wicked Game
TTITLE6=Ryan Adams - Down In A Hole
TTITLE7=James Vincent McMorrow - Higher Love
TTITLE8=Antony and The Johnsons - Knockin' On Heaven's Door
TTITLE9=Birdy - Shelter
TTITLE10=Dala - Ohio
TTITLE11=Joy Zipper - What Difference Does It Make?
TTITLE12=Hellsongs - Run To The Hills
TTITLE13=Sophie Hunger - Le Vent Nous Portera
TTITLE14=Mike Harvey - Bonnie and Clyde
TTITLE15=Alain Bashung - Nights In White Satin
TTITLE16=Nostalgia 77 (Feat. Alice Russell) - Seven Nation Army
TTITLE17=Hayseed Dixie - Breaking The Law
EXTD=
EXTT0=
EXTT1=
EXTT2=
EXTT3=
EXTT4=
EXTT5=
EXTT6=
EXTT7=
EXTT8=
EXTT9=
EXTT10=
EXTT11=
EXTT12=
EXTT13=
EXTT14=
EXTT15=
EXTT16=
EXTT17=
PLAYORDER=
